HIERARCHY
ROOT mixamorig:Hips
{
	OFFSET 0.000000 201.639420 0.000000
	CHANNELS 6 Xposition Yposition Zposition Xrotation Yrotation Zrotation
	JOINT mixamorig:Spine
	{
		OFFSET 0.006200 19.524994 -2.481800
		CHANNELS 3 Xrotation Yrotation Zrotation
		JOINT mixamorig:Spine1
		{
			OFFSET -0.000900 22.835007 -2.825400
			CHANNELS 3 Xrotation Yrotation Zrotation
			JOINT mixamorig:Spine2
			{
				OFFSET -0.020600 26.552490 -3.193300
				CHANNELS 3 Xrotation Yrotation Zrotation
				JOINT mixamorig:Neck
				{
					OFFSET -0.060000 30.701813 1.352200
					CHANNELS 3 Xrotation Yrotation Zrotation
					JOINT mixamorig:Head
					{
						OFFSET -0.087200 22.547607 3.670900
						CHANNELS 3 Xrotation Yrotation Zrotation
						JOINT mixamorig:HeadTop_End
						{
							OFFSET -0.830600 40.355194 7.893500
							CHANNELS 3 Xrotation Yrotation Zrotation
							End Site
							{
								OFFSET 0.000000 30.592346 0.000000
							}
						}
						JOINT mixamorig:RightEye
						{
							OFFSET -6.302100 18.118591 16.197100
							CHANNELS 3 Xrotation Yrotation Zrotation
							End Site
							{
								OFFSET 0.000000 30.592346 0.000000
							}
						}
						JOINT mixamorig:LeftEye
						{
							OFFSET 6.741500 18.382690 16.401899
							CHANNELS 3 Xrotation Yrotation Zrotation
							End Site
							{
								OFFSET 0.000000 30.592346 0.000000
							}
						}
					}
				}
				JOINT mixamorig:LeftShoulder
				{
					OFFSET 11.924900 18.230499 1.425400
					CHANNELS 3 Xrotation Yrotation Zrotation
					JOINT mixamorig:LeftArm
					{
						OFFSET 25.435989 -0.697632 -5.229300
						CHANNELS 3 Xrotation Yrotation Zrotation
						JOINT mixamorig:LeftForeArm
						{
							OFFSET 54.684776 0.000000 0.000000
							CHANNELS 3 Xrotation Yrotation Zrotation
							JOINT mixamorig:LeftHand
							{
								OFFSET 55.098175 0.000000 0.000000
								CHANNELS 3 Xrotation Yrotation Zrotation
								JOINT mixamorig:LeftHandMiddle1
								{
									OFFSET 23.369751 0.000000 0.000000
									CHANNELS 3 Xrotation Yrotation Zrotation
									JOINT mixamorig:LeftHandMiddle2
									{
										OFFSET 6.378677 0.000000 0.000000
										CHANNELS 3 Xrotation Yrotation Zrotation
										JOINT mixamorig:LeftHandMiddle3
										{
											OFFSET 6.148331 0.000000 0.000000
											CHANNELS 3 Xrotation Yrotation Zrotation
											JOINT mixamorig:LeftHandMiddle4
											{
												OFFSET 6.582504 0.000000 0.000000
												CHANNELS 3 Xrotation Yrotation Zrotation
												End Site
												{
													OFFSET -1.168900 6.395691 1.028606
												}
											}
										}
									}
								}
								JOINT mixamorig:LeftHandThumb1
								{
									OFFSET 7.235672 -3.848206 5.434273
									CHANNELS 3 Xrotation Yrotation Zrotation
									JOINT mixamorig:LeftHandThumb2
									{
										OFFSET 6.568451 -3.792297 3.792300
										CHANNELS 3 Xrotation Yrotation Zrotation
										JOINT mixamorig:LeftHandThumb3
										{
											OFFSET 6.063080 -3.500519 3.500518
											CHANNELS 3 Xrotation Yrotation Zrotation
											JOINT mixamorig:LeftHandThumb4
											{
												OFFSET 4.793182 -2.767334 2.767349
												CHANNELS 3 Xrotation Yrotation Zrotation
												End Site
												{
													OFFSET 0.101639 6.054260 1.275483
												}
											}
										}
									}
								}
								JOINT mixamorig:LeftHandIndex1
								{
									OFFSET 23.101074 -0.309540 4.992809
									CHANNELS 3 Xrotation Yrotation Zrotation
									JOINT mixamorig:LeftHandIndex2
									{
										OFFSET 6.226883 0.000000 0.000000
										CHANNELS 3 Xrotation Yrotation Zrotation
										JOINT mixamorig:LeftHandIndex3
										{
											OFFSET 6.094330 0.000000 0.000000
											CHANNELS 3 Xrotation Yrotation Zrotation
											JOINT mixamorig:LeftHandIndex4
											{
												OFFSET 5.482605 0.000000 0.000000
												CHANNELS 3 Xrotation Yrotation Zrotation
												End Site
												{
													OFFSET -1.427902 5.233032 0.797164
												}
											}
										}
									}
								}
								JOINT mixamorig:LeftHandRing1
								{
									OFFSET 22.299240 0.021149 -3.964172
									CHANNELS 3 Xrotation Yrotation Zrotation
									JOINT mixamorig:LeftHandRing2
									{
										OFFSET 6.321869 0.000000 0.000000
										CHANNELS 3 Xrotation Yrotation Zrotation
										JOINT mixamorig:LeftHandRing3
										{
											OFFSET 5.899796 0.000000 0.000000
											CHANNELS 3 Xrotation Yrotation Zrotation
											JOINT mixamorig:LeftHandRing4
											{
												OFFSET 6.517899 0.000000 0.000000
												CHANNELS 3 Xrotation Yrotation Zrotation
												End Site
												{
													OFFSET -1.637299 6.232208 0.980890
												}
											}
										}
									}
								}
								JOINT mixamorig:LeftHandPinky1
								{
									OFFSET 20.463791 -0.302338 -8.562233
									CHANNELS 3 Xrotation Yrotation Zrotation
									JOINT mixamorig:LeftHandPinky2
									{
										OFFSET 6.908646 0.000000 0.000000
										CHANNELS 3 Xrotation Yrotation Zrotation
										JOINT mixamorig:LeftHandPinky3
										{
											OFFSET 4.622849 0.000000 0.000000
											CHANNELS 3 Xrotation Yrotation Zrotation
											JOINT mixamorig:LeftHandPinky4
											{
												OFFSET 5.216080 0.000000 0.000000
												CHANNELS 3 Xrotation Yrotation Zrotation
												End Site
												{
													OFFSET -0.606308 5.116241 0.814926
												}
											}
										}
									}
								}
							}
						}
					}
				}
				JOINT mixamorig:RightShoulder
				{
					OFFSET -12.001300 18.284088 1.348900
					CHANNELS 3 Xrotation Yrotation Zrotation
					JOINT mixamorig:RightArm
					{
						OFFSET -25.308500 -0.751312 -5.164599
						CHANNELS 3 Xrotation Yrotation Zrotation
						JOINT mixamorig:RightForeArm
						{
							OFFSET -54.684429 0.000000 0.000000
							CHANNELS 3 Xrotation Yrotation Zrotation
							JOINT mixamorig:RightHand
							{
								OFFSET -55.150291 0.000000 0.000000
								CHANNELS 3 Xrotation Yrotation Zrotation
								JOINT mixamorig:RightHandMiddle1
								{
									OFFSET -23.317566 0.000000 0.000000
									CHANNELS 3 Xrotation Yrotation Zrotation
									JOINT mixamorig:RightHandMiddle2
									{
										OFFSET -6.378403 0.000000 0.000000
										CHANNELS 3 Xrotation Yrotation Zrotation
										JOINT mixamorig:RightHandMiddle3
										{
											OFFSET -6.148193 0.000000 0.000000
											CHANNELS 3 Xrotation Yrotation Zrotation
											JOINT mixamorig:RightHandMiddle4
											{
												OFFSET -6.583389 0.000000 0.000000
												CHANNELS 3 Xrotation Yrotation Zrotation
												End Site
												{
													OFFSET 1.171692 6.395905 1.029786
												}
											}
										}
									}
								}
								JOINT mixamorig:RightHandThumb1
								{
									OFFSET -7.190521 -3.860474 5.435846
									CHANNELS 3 Xrotation Yrotation Zrotation
									JOINT mixamorig:RightHandThumb2
									{
										OFFSET -6.567429 -3.791718 3.791708
										CHANNELS 3 Xrotation Yrotation Zrotation
										JOINT mixamorig:RightHandThumb3
										{
											OFFSET -6.062469 -3.500153 3.500166
											CHANNELS 3 Xrotation Yrotation Zrotation
											JOINT mixamorig:RightHandThumb4
											{
												OFFSET -4.792618 -2.767029 2.767022
												CHANNELS 3 Xrotation Yrotation Zrotation
												End Site
												{
													OFFSET -0.100327 6.053253 1.276754
												}
											}
										}
									}
								}
								JOINT mixamorig:RightHandIndex1
								{
									OFFSET -23.048981 -0.310791 4.992554
									CHANNELS 3 Xrotation Yrotation Zrotation
									JOINT mixamorig:RightHandIndex2
									{
										OFFSET -6.227539 0.000000 0.000000
										CHANNELS 3 Xrotation Yrotation Zrotation
										JOINT mixamorig:RightHandIndex3
										{
											OFFSET -6.095047 0.000000 0.000000
											CHANNELS 3 Xrotation Yrotation Zrotation
											JOINT mixamorig:RightHandIndex4
											{
												OFFSET -5.484772 0.000000 0.000000
												CHANNELS 3 Xrotation Yrotation Zrotation
												End Site
												{
													OFFSET 1.420593 5.237305 0.797056
												}
											}
										}
									}
								}
								JOINT mixamorig:RightHandRing1
								{
									OFFSET -22.246323 0.020569 -3.963762
									CHANNELS 3 Xrotation Yrotation Zrotation
									JOINT mixamorig:RightHandRing2
									{
										OFFSET -6.322128 0.000000 0.000000
										CHANNELS 3 Xrotation Yrotation Zrotation
										JOINT mixamorig:RightHandRing3
										{
											OFFSET -5.900024 0.000000 0.000000
											CHANNELS 3 Xrotation Yrotation Zrotation
											JOINT mixamorig:RightHandRing4
											{
												OFFSET -6.518356 0.000000 0.000000
												CHANNELS 3 Xrotation Yrotation Zrotation
												End Site
												{
													OFFSET 1.636398 6.232697 0.982186
												}
											}
										}
									}
								}
								JOINT mixamorig:RightHandPinky1
								{
									OFFSET -20.411011 -0.303314 -8.561701
									CHANNELS 3 Xrotation Yrotation Zrotation
									JOINT mixamorig:RightHandPinky2
									{
										OFFSET -6.907349 0.000000 0.000000
										CHANNELS 3 Xrotation Yrotation Zrotation
										JOINT mixamorig:RightHandPinky3
										{
											OFFSET -4.623840 0.000000 0.000000
											CHANNELS 3 Xrotation Yrotation Zrotation
											JOINT mixamorig:RightHandPinky4
											{
												OFFSET -5.218353 0.000000 0.000000
												CHANNELS 3 Xrotation Yrotation Zrotation
												End Site
												{
													OFFSET 0.602097 5.118835 0.816273
												}
											}
										}
									}
								}
							}
						}
					}
				}
			}
		}
	}
	JOINT mixamorig:LeftUpLeg
	{
		OFFSET 18.168400 -13.561905 -0.039000
		CHANNELS 3 Xrotation Yrotation Zrotation
		JOINT mixamorig:LeftLeg
		{
			OFFSET 0.577358 -80.825211 -3.695000
			CHANNELS 3 Xrotation Yrotation Zrotation
			JOINT mixamorig:LeftFoot
			{
				OFFSET -0.577356 -83.370262 -6.520700
				CHANNELS 3 Xrotation Yrotation Zrotation
				JOINT mixamorig:LeftToeBase
				{
					OFFSET 0.750401 -20.798306 25.135401
					CHANNELS 3 Xrotation Yrotation Zrotation
					JOINT mixamorig:LeftToe_End
					{
						OFFSET -0.000500 0.001200 19.917799
						CHANNELS 3 Xrotation Yrotation Zrotation
						End Site
						{
							OFFSET 0.000000 19.917805 0.000000
						}
					}
				}
			}
		}
	}
	JOINT mixamorig:RightUpLeg
	{
		OFFSET -18.162500 -13.585098 -0.041000
		CHANNELS 3 Xrotation Yrotation Zrotation
		JOINT mixamorig:RightLeg
		{
			OFFSET -0.595024 -80.945297 -3.631900
			CHANNELS 3 Xrotation Yrotation Zrotation
			JOINT mixamorig:RightFoot
			{
				OFFSET 0.595024 -83.218193 -6.561200
				CHANNELS 3 Xrotation Yrotation Zrotation
				JOINT mixamorig:RightToeBase
				{
					OFFSET -0.753601 -20.807106 25.115000
					CHANNELS 3 Xrotation Yrotation Zrotation
					JOINT mixamorig:RightToe_End
					{
						OFFSET 0.000299 0.001700 19.918200
						CHANNELS 3 Xrotation Yrotation Zrotation
						End Site
						{
							OFFSET 0.000000 19.918203 0.000000
						}
					}
				}
			}
		}
	}
}
MOTION
Frames: 4
Frame Time: 0.033333
-0.235103 281.697083 -97.452019 -22.131514 -4.174640 -2.018002 7.173470 -1.076396 -0.270744 14.349258 -1.906837 -0.268819 14.349258 -1.906834 -0.268818 -8.161250 2.722404 0.923318 -20.480602 1.802882 2.534525 0.000002 -0.000000 0.000000 0.000002 -0.000000 0.000000 0.000002 -0.000000 0.000000 4.302337 -7.236900 34.154986 -48.783571 -21.843367 -3.845826 -15.322633 -30.755884 1.269869 11.548663 -0.844164 41.886753 -10.484904 -3.733418 -70.126864 -1.762281 1.478949 -29.317183 0.000003 0.000004 0.000004 -0.000002 -0.000000 0.000002 -13.153983 -7.810052 25.024203 13.345904 24.508249 -6.082991 0.000006 0.000012 0.000002 0.000002 0.000001 -0.000001 -8.168052 -3.765195 -69.041710 -4.840415 2.499635 -37.157479 -0.000001 -0.000001 -0.000001 -0.000002 -0.000001 -0.000001 -14.961283 7.582095 -72.043019 7.597246 -0.799806 -32.941774 -0.000003 -0.000004 0.000004 -0.000000 0.000001 0.000002 -16.615052 5.551373 -76.042552 8.269425 -0.683917 -20.543826 0.000000 0.000007 -0.000005 0.000001 -0.000000 0.000000 12.386797 30.679174 -33.586455 -42.917593 22.219261 -13.589724 -19.657665 28.345157 4.066460 1.181364 6.742382 -43.418570 -6.943857 -3.862015 70.729505 8.666098 6.145357 39.854663 -0.000006 -0.000010 0.000002 0.000000 0.000000 -0.000003 10.566741 2.780671 -11.463022 -6.910274 -7.680157 -8.457828 0.000002 0.000005 -0.000010 0.000000 -0.000000 -0.000002 -0.975950 4.335466 72.335774 1.306404 9.314279 40.047831 0.000001 -0.000009 0.000003 -0.000001 -0.000001 0.000000 -6.554384 1.000560 70.730038 0.401802 -1.465631 40.592354 -0.000008 0.000010 0.000001 -0.000001 0.000001 0.000001 -17.145600 -17.065897 65.722102 24.695503 5.471025 30.309432 -0.000005 -0.000011 0.000004 -0.000003 -0.000001 -0.000001 -90.144447 6.128226 33.520301 120.789491 -27.451966 -2.079597 -32.740922 -3.484462 12.903969 -44.713109 -2.564875 -1.879684 -0.000001 0.000000 -0.000000 -107.792058 -6.207211 -36.351889 128.281184 23.269768 -0.619140 -25.269659 0.586452 -1.457212 -37.363491 5.777629 10.266464 0.000003 0.000001 -0.000000 
0.406154 281.132812 -97.255737 -21.382973 -4.799515 -1.993941 7.190284 -1.091029 -0.316263 14.380567 -1.983509 -0.419295 14.380567 -1.983507 -0.419295 -10.749139 3.099904 0.405440 -20.212705 1.259016 3.086676 0.000002 0.000000 -0.000000 0.000002 0.000000 -0.000000 0.000002 0.000000 -0.000000 2.901311 -5.517746 34.549218 -48.847641 -21.173848 -4.972647 -15.297769 -33.179338 1.921551 11.230498 0.259114 41.155274 -10.386134 -3.734805 -69.583379 -1.758910 1.588234 -28.678363 0.000003 0.000005 0.000004 0.000001 -0.000000 0.000001 -12.737963 -8.352446 25.903801 15.241974 24.619910 -7.587824 0.000004 0.000011 0.000002 0.000001 0.000001 0.000001 -8.112256 -3.597842 -68.732597 -4.840276 2.601076 -36.424829 0.000000 -0.000001 -0.000001 -0.000000 0.000000 -0.000000 -15.038613 7.560702 -71.810847 7.667311 -0.622015 -32.250155 -0.000002 -0.000006 0.000004 -0.000000 -0.000002 -0.000000 -16.621791 5.623646 -76.430486 8.322717 -0.501093 -19.975028 -0.000002 0.000009 -0.000005 -0.000002 -0.000001 0.000000 11.493092 28.587087 -34.871247 -43.552435 21.195907 -11.181296 -20.850928 30.604831 3.869972 -0.043807 6.343751 -43.774822 -6.869055 -3.937959 69.607510 8.994438 6.064000 39.094275 -0.000007 -0.000013 0.000004 0.000001 0.000001 -0.000001 11.497597 2.695631 -11.330500 -7.347334 -7.028602 -8.778576 0.000001 0.000004 -0.000009 -0.000002 -0.000000 0.000003 -0.270352 4.138917 70.900943 1.552278 9.394131 39.286343 0.000003 -0.000008 0.000002 -0.000000 -0.000001 -0.000002 -6.255217 1.104838 69.898346 0.336750 -1.598950 40.038569 -0.000005 0.000010 -0.000002 -0.000000 -0.000001 -0.000000 -17.118452 -17.204480 65.099667 25.031014 5.194357 29.875251 -0.000004 -0.000013 0.000003 0.000000 0.000002 0.000001 -92.060841 7.022640 33.665856 121.897444 -24.212628 -1.352484 -31.917716 -3.635539 12.486808 -45.470161 -2.608309 -1.911496 0.000001 0.000002 -0.000001 -109.369907 -7.007187 -37.283127 128.177884 22.344330 -0.713330 -25.402139 0.707594 -1.948338 -37.996117 5.875448 10.440283 -0.000000 -0.000001 0.000001 
1.042028 280.851837 -97.295670 -21.500560 -5.125749 -1.691347 7.317358 -1.046217 -0.343341 14.632557 -1.949056 -0.537860 14.632557 -1.949051 -0.537860 -11.994543 3.384645 -0.055059 -20.129669 0.887828 3.347587 0.000000 -0.000000 -0.000000 0.000000 -0.000000 -0.000000 0.000000 -0.000000 -0.000000 1.855494 -4.203774 34.559780 -49.684473 -22.530130 -6.411281 -15.246616 -32.173606 2.326592 11.432874 -0.307420 41.313769 -10.272544 -3.788310 -68.785052 -1.762463 1.660685 -28.326676 0.000003 0.000004 0.000004 0.000001 0.000000 0.000000 -12.301125 -8.900846 26.761149 16.989167 24.389284 -8.796532 0.000006 0.000014 0.000002 0.000001 -0.000001 -0.000001 -7.999897 -3.503447 -68.041634 -4.855870 2.671772 -36.149169 0.000002 0.000000 -0.000000 0.000000 -0.000000 0.000000 -15.109712 7.454489 -71.141611 7.718069 -0.494383 -31.763173 -0.000002 -0.000003 0.000001 0.000000 0.000000 -0.000003 -16.590169 5.559861 -75.988887 8.346572 -0.346382 -19.462428 -0.000003 0.000007 -0.000005 -0.000003 -0.000001 0.000000 10.078918 25.933400 -35.938304 -44.722142 22.261723 -7.763712 -21.131355 30.226842 3.394023 -0.285797 7.015444 -44.377809 -6.635236 -4.028780 68.436726 9.233976 6.003765 38.551142 -0.000005 -0.000013 0.000002 0.000002 -0.000000 -0.000001 12.216947 2.738811 -11.375200 -7.804405 -6.295672 -9.105608 -0.000001 0.000005 -0.000013 0.000000 0.000000 0.000001 0.165886 3.994625 69.910019 1.664932 9.479002 38.992102 0.000001 -0.000009 0.000003 0.000003 -0.000001 -0.000001 -6.005584 1.185271 69.023269 0.279636 -1.706382 39.534101 -0.000007 0.000008 -0.000001 -0.000000 -0.000001 -0.000000 -17.113063 -17.307839 64.102650 25.258741 4.861902 29.353052 -0.000003 -0.000013 0.000004 0.000002 -0.000000 0.000000 -93.191067 8.034440 33.408480 123.383515 -20.519463 -0.447338 -30.183292 -3.964993 11.829273 -46.028491 -2.640324 -1.934970 -0.000001 -0.000001 0.000000 -109.855909 -6.906498 -37.820533 128.528765 22.499114 -1.103793 -25.199699 0.725700 -2.189114 -38.462646 5.947596 10.568506 -0.000000 0.000001 -0.000001 
1.809242 280.918701 -97.475731 -22.193573 -5.386915 -1.575698 7.515368 -0.955307 -0.359694 15.028334 -1.771270 -0.577118 15.028332 -1.771267 -0.577118 -12.278695 3.184632 0.035215 -20.196571 0.888963 2.868214 0.000002 -0.000000 -0.000000 0.000002 -0.000000 -0.000000 0.000002 -0.000000 -0.000000 0.748126 -2.805063 35.155988 -51.433326 -24.549295 -9.179512 -15.027951 -29.741574 2.509042 12.020768 -1.403066 42.132158 -10.143371 -3.874100 -67.837070 -1.767477 1.701350 -28.170376 0.000003 0.000005 0.000004 0.000002 0.000001 0.000001 -11.842220 -9.455220 27.593402 18.532748 23.990776 -9.728529 0.000006 0.000014 0.000001 0.000001 -0.000001 0.000000 -7.872724 -3.479194 -67.151251 -4.876896 2.712470 -36.186571 0.000001 -0.000000 -0.000001 0.000000 0.000000 0.000002 -15.165472 7.299957 -70.243462 7.752935 -0.434971 -31.558206 -0.000002 -0.000005 0.000001 -0.000000 -0.000001 0.000002 -16.541572 5.434822 -75.171163 8.333166 -0.212718 -18.959908 -0.000002 0.000008 -0.000005 -0.000002 0.000002 -0.000000 9.326147 24.211556 -36.987790 -45.746090 23.008199 -5.293460 -21.469877 28.673346 3.090183 0.075663 8.445196 -44.871218 -6.563143 -4.013015 66.320386 9.371509 5.979703 38.276414 -0.000004 -0.000013 -0.000001 0.000005 0.000000 -0.000001 13.603092 1.884920 -10.961976 -8.690570 -5.002924 -9.589134 -0.000001 0.000004 -0.000012 0.000000 0.000000 0.000001 0.669251 3.729425 67.258437 1.710582 9.541036 38.902548 0.000003 -0.000007 0.000002 -0.000001 -0.000000 0.000000 -5.714010 1.288227 66.875441 0.245174 -1.770458 39.242572 -0.000007 0.000009 0.000003 -0.000000 -0.000001 -0.000003 -17.357746 -17.101071 62.482407 25.362255 4.419717 28.649915 -0.000002 -0.000012 0.000005 0.000001 0.000000 -0.000000 -92.500535 8.426602 32.760237 123.839239 -20.089253 -0.001936 -29.383078 -4.037984 12.072521 -46.373866 -2.660144 -1.949493 -0.000001 -0.000000 -0.000000 -109.140658 -6.510617 -37.603050 128.775239 23.350993 -1.500909 -25.052502 0.580671 -2.139198 -38.751290 5.992221 10.647800 -0.000000 -0.000001 0.000000 
